HIERARCHY
ROOT joint_Root
{
	OFFSET 0.0 0.0 0.0
	CHANNELS 6 Xposition Yposition Zposition Zrotation Xrotation Yrotation 
	JOINT Hips
	{
		OFFSET -17.1583 93.1646 452.98
		CHANNELS 6 Xposition Yposition Zposition Zrotation Xrotation Yrotation 
		JOINT Spine
		{
			OFFSET 15.7357 0.0 0.0
			CHANNELS 6 Xposition Yposition Zposition Zrotation Xrotation Yrotation 
			JOINT Chest
			{
				OFFSET 8.98455 -0.406207 0.0
				CHANNELS 6 Xposition Yposition Zposition Zrotation Xrotation Yrotation 
				JOINT Neck
				{
					OFFSET 16.3773 0.0 0.0
					CHANNELS 6 Xposition Yposition Zposition Zrotation Xrotation Yrotation 
					JOINT Head
					{
						OFFSET 6.45672 0.0 0.0
						CHANNELS 6 Xposition Yposition Zposition Zrotation Xrotation Yrotation 
						End Site
						{
							OFFSET 0.0 0.0 0.0
						}
					}
				}
				JOINT Shoulder_L
				{
					OFFSET 12.9942 -0.242716 4.98039
					CHANNELS 6 Xposition Yposition Zposition Zrotation Xrotation Yrotation 
					JOINT UpperArm_L
					{
						OFFSET 5.34809 0.0 0.0
						CHANNELS 6 Xposition Yposition Zposition Zrotation Xrotation Yrotation 
						JOINT LowerArm_L
						{
							OFFSET 24.3286 1.87007e-05 0.0
							CHANNELS 6 Xposition Yposition Zposition Zrotation Xrotation Yrotation 
							JOINT Hand_L
							{
								OFFSET 22.2916 0.0 0.0
								CHANNELS 6 Xposition Yposition Zposition Zrotation Xrotation Yrotation 
								End Site
								{
									OFFSET 0.0 0.0 0.0
								}
							}
						}
					}
				}
				JOINT Shoulder_R
				{
					OFFSET 12.9945 -0.242716 -4.98039
					CHANNELS 6 Xposition Yposition Zposition Zrotation Xrotation Yrotation 
					JOINT UpperArm_R
					{
						OFFSET -5.34813 0.0 0.0
						CHANNELS 6 Xposition Yposition Zposition Zrotation Xrotation Yrotation 
						JOINT LowerArm_R
						{
							OFFSET -24.3289 0.000322201 0.0
							CHANNELS 6 Xposition Yposition Zposition Zrotation Xrotation Yrotation 
							JOINT Hand_R
							{
								OFFSET -22.2915 -0.000108084 0.0
								CHANNELS 6 Xposition Yposition Zposition Zrotation Xrotation Yrotation 
								End Site
								{
									OFFSET 0.0 0.0 0.0
								}
							}
						}
					}
				}
			}
		}
		JOINT UpperLeg_L
		{
			OFFSET -2.19248 -6.46944 0.0
			CHANNELS 6 Xposition Yposition Zposition Zrotation Xrotation Yrotation 
			JOINT LowerLeg_L
			{
				OFFSET 39.0811 0.0 -1.23785e-05
				CHANNELS 6 Xposition Yposition Zposition Zrotation Xrotation Yrotation 
				JOINT Foot_L
				{
					OFFSET 40.9854 0.0 -1.26872e-05
					CHANNELS 6 Xposition Yposition Zposition Zrotation Xrotation Yrotation 
					JOINT Toes_L
					{
						OFFSET 11.7543 0.0 0.0
						CHANNELS 6 Xposition Yposition Zposition Zrotation Xrotation Yrotation 
						End Site
						{
							OFFSET 0.0 0.0 0.0
						}
					}
				}
			}
		}
		JOINT UpperLeg_R
		{
			OFFSET -2.19251 6.46944 0.0
			CHANNELS 6 Xposition Yposition Zposition Zrotation Xrotation Yrotation 
			JOINT LowerLeg_R
			{
				OFFSET -39.0811 -0.00228153 -0.0401928
				CHANNELS 6 Xposition Yposition Zposition Zrotation Xrotation Yrotation 
				JOINT Foot_R
				{
					OFFSET -40.9854 0.0 0.0
					CHANNELS 6 Xposition Yposition Zposition Zrotation Xrotation Yrotation 
					JOINT Toes_R
					{
						OFFSET -11.7543 0.0 0.0
						CHANNELS 6 Xposition Yposition Zposition Zrotation Xrotation Yrotation 
						End Site
						{
							OFFSET 0.0 0.0 0.0
						}
					}
				}
			}
		}
	}
}
MOTION
Frames:	9
Frame Time:	0.0333333
0.000000 0.000000 0.000000 0.000000 0.000000 -0.000000 -4.166520 91.823600 -0.999805 84.825300 0.706732 6.176530 15.735700 0.000005 -0.000001 74.543000 86.309600 -71.547500 8.984550 -0.406207 -0.000000 -0.587793 -2.184890 5.977360 16.377300 -0.000001 -0.000001 10.373400 3.316130 -3.879220 6.456720 -0.000001 -0.000000 -2.134660 4.095370 -3.146720 12.994200 -0.242716 4.980390 -92.988800 8.392880 -70.317400 5.348090 -0.000007 -0.000001 -73.621500 28.792100 0.476783 24.328600 0.000019 0.000005 11.214500 27.627900 -23.149100 22.291600 -0.000001 0.000005 -2.112470 4.985500 7.626260 12.994500 -0.242716 -4.980390 87.457900 6.555730 -68.750300 -5.348130 -0.000001 -0.000004 -70.370500 13.357800 -1.547370 -24.328900 0.000322 -0.000009 1.075620 2.422520 -23.971600 -22.291500 -0.000108 -0.000004 -0.630195 5.220530 2.199110 -2.192480 -6.469440 -0.000000 -172.618000 4.912820 -2.154910 39.081100 -0.000007 -0.000012 0.367070 -0.679878 28.365700 40.985400 -0.000006 -0.000013 -0.784950 4.417090 -76.192100 11.754300 -0.000000 0.000003 0.000225 0.163751 -9.935340 -2.192510 6.469440 -0.000001 -170.493000 9.076840 -174.914000 -39.081100 -0.002282 -0.040193 0.141925 -0.482750 16.018800 -40.985400 0.000008 0.000006 6.372350 2.352280 -71.507900 -11.754300 -0.000006 -0.000006 -0.010869 0.277685 -5.289970
0.000000 0.000000 0.000000 0.000000 0.000000 -0.000000 -4.174170 91.822200 -1.018200 84.792300 0.727752 6.135930 15.735700 0.000005 -0.000001 74.388800 86.319200 -71.389600 8.984550 -0.406207 -0.000000 -0.611165 -2.199740 5.984340 16.377300 -0.000001 -0.000001 10.364100 3.297320 -3.747520 6.456720 -0.000001 -0.000000 -2.233990 4.073040 -2.958280 12.994200 -0.242716 4.980390 -92.989700 8.395630 -70.318000 5.348090 -0.000007 -0.000001 -73.701800 28.680800 0.532963 24.328600 0.000019 0.000005 11.156500 27.516500 -23.116300 22.291600 -0.000001 0.000005 -2.272690 4.987620 7.581590 12.994500 -0.242716 -4.980390 87.452800 6.539410 -68.663400 -5.348130 -0.000001 -0.000004 -70.410000 12.014300 -1.046950 -24.328900 0.000322 -0.000009 0.957701 1.956710 -26.111700 -22.291500 -0.000108 -0.000004 -0.668799 5.214670 2.348660 -2.192480 -6.469440 -0.000000 -172.572000 4.905720 -2.240660 39.081100 -0.000007 -0.000012 0.369139 -0.682373 28.412700 40.985400 -0.000006 -0.000013 -0.790904 4.431270 -76.209700 11.754300 -0.000000 0.000003 0.000076 0.166328 -9.830690 -2.192510 6.469440 -0.000001 -170.455000 9.100630 -174.964000 -39.081100 -0.002282 -0.040193 0.141596 -0.481712 16.015500 -40.985400 0.000008 0.000006 6.378750 2.396520 -71.515100 -11.754300 -0.000006 -0.000006 -0.011105 0.279384 -5.220430
0.000000 0.000000 0.000000 0.000000 0.000000 -0.000000 -4.184200 91.828500 -1.020230 84.762600 0.694447 6.077580 15.735700 0.000005 -0.000001 74.161400 86.324000 -71.153400 8.984550 -0.406207 -0.000000 -0.627501 -2.226270 6.001450 16.377300 -0.000001 -0.000001 10.267800 3.307980 -3.607360 6.456720 -0.000001 -0.000000 -2.290570 3.999820 -2.745850 12.994200 -0.242716 4.980390 -93.010600 8.452800 -70.313500 5.348090 -0.000007 -0.000001 -73.736400 28.710700 0.677037 24.328600 0.000019 0.000005 11.180900 27.396900 -23.246000 22.291600 -0.000001 0.000005 -2.326580 4.987080 7.592910 12.994500 -0.242716 -4.980390 87.478500 6.448190 -68.588800 -5.348130 -0.000001 -0.000004 -70.435600 10.818700 -0.603349 -24.328900 0.000322 -0.000009 0.853807 1.554210 -28.817700 -22.291500 -0.000108 -0.000004 -0.439658 5.208460 2.506200 -2.192480 -6.469440 -0.000000 -172.538000 4.905830 -2.283140 39.081100 -0.000007 -0.000012 0.367946 -0.680856 28.388400 40.985400 -0.000006 -0.000013 -0.806983 4.385230 -76.172300 11.754300 -0.000000 0.000003 0.000321 0.162027 -10.005300 -2.192510 6.469440 -0.000001 -170.430000 9.130870 -175.005000 -39.081100 -0.002282 -0.040193 0.137814 -0.470040 15.966800 -40.985400 0.000008 0.000006 6.299600 2.433110 -71.445200 -11.754300 -0.000006 -0.000006 -0.010892 0.277855 -5.282990
0.000000 0.000000 0.000000 0.000000 0.000000 -0.000000 -4.191060 91.832000 -1.052730 84.732400 0.694817 6.037610 15.735700 0.000005 -0.000001 73.890600 86.319400 -70.899700 8.984550 -0.406207 -0.000000 -0.627795 -2.260970 5.967090 16.377300 -0.000001 -0.000001 10.093200 3.223010 -3.339020 6.456720 -0.000001 -0.000000 -2.403870 3.903080 -2.405990 12.994200 -0.242716 4.980390 -93.019700 8.474430 -70.304300 5.348090 -0.000007 -0.000001 -73.738000 28.653900 0.694631 24.328600 0.000019 0.000005 11.203400 27.464200 -23.241700 22.291600 -0.000001 0.000005 -2.241180 4.988460 7.563890 12.994500 -0.242716 -4.980390 87.482300 6.416620 -68.523400 -5.348130 -0.000001 -0.000004 -70.425000 9.198000 -0.044973 -24.328900 0.000322 -0.000009 1.232010 1.943300 -32.404400 -22.291500 -0.000108 -0.000004 -0.514646 5.187710 3.025720 -2.192480 -6.469440 -0.000000 -172.510000 4.980020 -2.353190 39.081100 -0.000007 -0.000012 0.370319 -0.684469 28.415600 40.985400 -0.000006 -0.000013 -0.829760 4.342210 -76.239100 11.754300 -0.000000 0.000003 0.000109 0.165777 -9.853070 -2.192510 6.469440 -0.000001 -170.404000 9.132520 -175.070000 -39.081100 -0.002282 -0.040193 0.136147 -0.463646 15.985300 -40.985400 0.000008 0.000006 6.210690 2.527060 -71.437100 -11.754300 -0.000006 -0.000006 -0.011293 0.280726 -5.165480
0.000000 0.000000 0.000000 0.000000 0.000000 -0.000000 -4.199490 91.831900 -1.075710 84.652800 0.683015 5.966180 15.735700 0.000005 -0.000001 73.444300 86.310500 -70.449700 8.984550 -0.406207 -0.000000 -0.625133 -2.321260 5.974280 16.377300 -0.000001 -0.000001 9.880340 3.130990 -3.018440 6.456720 -0.000001 -0.000000 -2.635860 3.743170 -1.966600 12.994200 -0.242716 4.980390 -93.058200 8.566470 -70.268600 5.348090 -0.000007 -0.000001 -73.659900 28.734100 0.733456 24.328600 0.000019 0.000005 11.280400 27.542700 -23.333300 22.291600 -0.000001 0.000005 -2.279760 4.986200 7.611600 12.994500 -0.242716 -4.980390 87.521000 6.306020 -68.487800 -5.348130 -0.000001 -0.000004 -70.432200 7.505190 0.548880 -24.328900 0.000322 -0.000009 2.037400 2.708240 -36.988700 -22.291500 -0.000108 -0.000004 -0.491963 5.147910 3.993310 -2.192480 -6.469440 -0.000000 -172.429000 5.053370 -2.472400 39.081100 -0.000007 -0.000012 0.368042 -0.678729 28.469700 40.985400 -0.000006 -0.000013 -0.861229 4.251100 -76.195000 11.754300 -0.000000 0.000003 0.000179 0.164549 -9.902960 -2.192510 6.469440 -0.000001 -170.338000 9.272630 -175.135000 -39.081100 -0.002282 -0.040193 0.133909 -0.457619 15.926200 -40.985400 0.000008 0.000006 6.239970 2.641000 -71.386000 -11.754300 -0.000006 -0.000006 -0.011504 0.282222 -5.104260
0.000000 0.000000 0.000000 0.000000 0.000000 -0.000000 -4.205090 91.847500 -1.142010 84.607900 0.613170 5.818490 15.735700 0.000005 -0.000001 73.062900 86.327600 -70.091400 8.984550 -0.406207 -0.000000 -0.671556 -2.357880 5.926940 16.377300 -0.000001 -0.000001 9.558860 3.012940 -2.525220 6.456720 -0.000001 -0.000000 -2.933840 3.575170 -1.356700 12.994200 -0.242716 4.980390 -93.086200 8.631160 -70.238200 5.348090 -0.000007 -0.000001 -73.598500 28.637400 0.773552 24.328600 0.000019 0.000005 11.233600 27.397400 -23.346000 22.291600 -0.000001 0.000005 -2.243960 4.987720 7.579410 12.994500 -0.242716 -4.980390 87.559100 6.193280 -68.439500 -5.348130 -0.000001 -0.000004 -70.374800 5.838650 1.215680 -24.328900 0.000322 -0.000009 3.257300 3.553070 -42.568900 -22.291500 -0.000108 -0.000004 -0.641852 5.111180 4.856270 -2.192480 -6.469440 -0.000000 -172.379000 5.043050 -2.643690 39.081100 -0.000007 -0.000012 0.368943 -0.680730 28.457700 40.985400 -0.000006 -0.000013 -0.885709 4.181380 -76.201900 11.754300 -0.000000 0.000003 0.000071 0.166416 -9.827150 -2.192510 6.469440 -0.000001 -170.281000 9.204300 -175.316000 -39.081100 -0.002282 -0.040193 0.130545 -0.446412 15.906400 -40.985400 0.000008 0.000006 6.091410 2.731890 -71.311300 -11.754300 -0.000006 -0.000006 -0.011084 0.279236 -5.226500
0.000000 0.000000 0.000000 0.000000 0.000000 -0.000000 -4.199660 91.849200 -1.180960 84.547300 0.491839 5.679800 15.735700 0.000005 -0.000001 73.129200 86.339800 -70.183800 8.984550 -0.406207 -0.000000 -0.693666 -2.341280 5.874430 16.377300 -0.000001 -0.000001 9.220340 2.888630 -1.903750 6.456720 -0.000001 -0.000000 -3.406660 3.408590 -0.501088 12.994200 -0.242716 4.980390 -93.097000 8.707590 -70.333800 5.348090 -0.000007 -0.000001 -73.529600 28.497800 0.853982 24.328600 0.000019 0.000005 11.222500 27.228200 -23.444200 22.291600 -0.000001 0.000005 -2.269810 4.989090 7.550680 12.994500 -0.242716 -4.980390 87.619300 6.031400 -68.412200 -5.348130 -0.000001 -0.000004 -70.393300 3.898860 1.901950 -24.328900 0.000322 -0.000009 4.953410 4.295770 -49.169000 -22.291500 -0.000108 -0.000004 -0.723473 5.083180 5.496470 -2.192480 -6.469440 -0.000000 -172.308000 5.010220 -2.824750 39.081100 -0.000007 -0.000012 0.369563 -0.680699 28.499100 40.985400 -0.000006 -0.000013 -0.911410 4.099680 -76.106800 11.754300 -0.000000 0.000003 0.000288 0.162632 -9.980790 -2.192510 6.469440 -0.000001 -170.227000 9.231520 -175.484000 -39.081100 -0.002282 -0.040193 0.129094 -0.440867 15.921900 -40.985400 0.000008 0.000006 6.064680 2.895410 -71.262800 -11.754300 -0.000006 -0.000006 -0.010949 0.278264 -5.266270
0.000000 0.000000 0.000000 0.000000 0.000000 -0.000000 -4.195540 91.875800 -1.239980 84.494300 0.430306 5.537410 15.735700 0.000005 -0.000001 72.610000 86.359500 -69.702600 8.984550 -0.406207 -0.000000 -0.750350 -2.391580 5.797070 16.377300 -0.000001 -0.000001 8.852990 2.838630 -1.298640 6.456720 -0.000001 -0.000000 -4.020220 3.249760 0.728846 12.994200 -0.242716 4.980390 -93.118000 8.771650 -70.342800 5.348090 -0.000007 -0.000001 -73.412300 28.622800 0.906971 24.328600 0.000019 0.000005 11.206700 27.161200 -23.461700 22.291600 -0.000001 0.000005 -2.452010 4.990210 7.526940 12.994500 -0.242716 -4.980390 87.602600 6.056650 -68.357100 -5.348130 -0.000001 -0.000004 -70.058600 2.428810 2.732520 -24.328900 0.000322 -0.000009 6.065180 3.944390 -57.086900 -22.291500 -0.000108 -0.000004 0.327912 5.066490 5.871130 -2.192480 -6.469440 -0.000000 -172.258000 5.012720 -2.948980 39.081100 -0.000007 -0.000012 0.371334 -0.686062 28.425500 40.985400 -0.000006 -0.000013 -0.939331 4.006560 -76.113100 11.754300 -0.000000 0.000003 0.000166 0.164785 -9.893370 -2.192510 6.469440 -0.000001 -170.179000 9.142920 -175.622000 -39.081100 -0.002282 -0.040193 0.122243 -0.419385 15.830600 -40.985400 0.000008 0.000006 5.831250 2.994320 -71.146100 -11.754300 -0.000006 -0.000006 -0.011150 0.279705 -5.207300
0.000000 0.000000 0.000000 0.000000 0.000000 -0.000000 -4.191440 91.889000 -1.278620 84.464000 0.450746 5.274750 15.735700 0.000005 -0.000001 71.402500 86.395100 -68.549900 8.984550 -0.406207 -0.000000 -0.863796 -2.513490 5.684330 16.377300 -0.000001 -0.000001 8.385330 2.888200 -0.609310 6.456720 -0.000001 -0.000000 -4.792180 3.325260 2.197070 12.994200 -0.242716 4.980390 -93.129400 8.802470 -70.339900 5.348090 -0.000007 -0.000001 -73.272700 28.715300 0.939709 24.328600 0.000019 0.000005 11.199800 27.066700 -23.515800 22.291600 -0.000001 0.000005 -2.669630 4.990560 7.519660 12.994500 -0.242716 -4.980390 87.572800 6.122140 -68.324200 -5.348130 -0.000001 -0.000004 -69.774100 0.672663 3.461040 -24.328900 0.000322 -0.000009 6.721940 2.999060 -66.067900 -22.291500 -0.000108 -0.000004 1.626790 5.055530 6.115020 -2.192480 -6.469440 -0.000000 -172.225000 5.114450 -3.243940 39.081100 -0.000007 -0.000012 0.369535 -0.683351 28.404000 40.985400 -0.000006 -0.000013 -0.959833 3.927620 -76.042900 11.754300 -0.000000 0.000003 0.000167 0.164770 -9.893980 -2.192510 6.469440 -0.000001 -170.122000 9.228410 -175.876000 -39.081100 -0.002282 -0.040193 0.120961 -0.417651 15.730100 -40.985400 0.000008 0.000006 5.839300 3.033290 -71.068100 -11.754300 -0.000006 -0.000006 -0.011707 0.283650 -5.045780
